<svg version="1.1" id="Layer_1" xmlns="http://www.w3.org/2000/svg" xmlns:xlink="http://www.w3.org/1999/xlink" x="0px" y="0px"
	 width="100%" viewBox="0 0 184 216" enable-background="new 0 0 184 216" xml:space="preserve">
<path fill="#ff0000" opacity="0.000000" stroke="none" 
	d="
M1.000000,105.000000 
	C1.000000,70.000000 1.000000,35.500004 1.000000,1.000005 
	C62.333328,1.000003 123.666656,1.000003 185.000000,1.000002 
	C185.000000,72.999992 185.000000,144.999985 185.000000,216.999969 
	C123.666679,216.999985 62.333363,216.999985 1.000021,217.000000 
	C1.000000,179.833328 1.000000,142.666672 1.000000,105.000000 
M7.997561,137.157135 
	C14.620410,142.053329 21.243259,146.949539 28.039707,151.974075 
	C25.537800,155.340103 22.575768,156.250702 18.833923,153.524307 
	C17.223076,152.350616 15.647608,150.960419 13.827279,150.287003 
	C11.801158,149.537430 7.896139,148.697266 7.613207,149.273468 
	C6.158898,152.235245 5.459332,155.682861 8.535553,158.391098 
	C9.401038,159.153061 10.440125,159.724274 11.423761,160.344635 
	C37.028214,176.492874 62.675770,192.573456 88.198074,208.850464 
	C91.846649,211.177353 94.616364,210.983154 98.148445,208.718185 
	C123.631050,192.377319 149.182404,176.142563 174.813339,160.035461 
	C178.202774,157.905441 179.529037,155.484192 179.365875,151.525681 
	C179.091614,144.871643 179.328857,138.196686 179.343430,131.530518 
	C179.351624,127.775848 179.344894,124.021141 179.344894,119.950439 
	C165.409515,121.467758 170.943375,132.343201 168.989166,139.786224 
	C158.619308,133.144226 148.772659,126.999390 139.160278,120.507721 
	C137.699478,119.521179 136.603500,116.938858 136.568069,115.071320 
	C136.362579,104.243813 136.402985,93.406998 136.607849,82.578018 
	C136.737015,75.749878 141.682831,73.124100 147.469040,76.611694 
	C150.459549,78.414215 153.445831,80.250305 156.268097,82.299721 
	C161.657028,86.212944 166.927170,90.289757 173.203934,95.020119 
	C178.268051,93.823151 179.285004,92.651871 179.409561,85.723145 
	C179.508408,80.225067 179.249146,74.712830 179.546692,69.228455 
	C179.792816,64.691559 178.001373,61.892757 174.205063,59.451035 
	C149.019897,43.252449 123.902412,26.946350 98.913933,10.446505 
	C94.660973,7.638280 91.457237,7.647339 87.200073,10.425343 
	C62.681686,26.424755 38.061256,42.271130 13.309875,57.907330 
	C8.319181,61.060104 6.495267,64.852386 6.562178,70.629982 
	C6.784088,89.791512 6.537494,108.958069 6.596364,128.122314 
	C6.604889,130.897812 7.301240,133.671219 7.997561,137.157135 
z"/>
<path fill="#000000" opacity="1.000000" stroke="none" 
	d="
M7.838430,136.801361 
	C7.301240,133.671219 6.604889,130.897812 6.596364,128.122314 
	C6.537494,108.958069 6.784088,89.791512 6.562178,70.629982 
	C6.495267,64.852386 8.319181,61.060104 13.309875,57.907330 
	C38.061256,42.271130 62.681686,26.424755 87.200073,10.425343 
	C91.457237,7.647339 94.660973,7.638280 98.913933,10.446505 
	C123.902412,26.946350 149.019897,43.252449 174.205063,59.451035 
	C178.001373,61.892757 179.792816,64.691559 179.546692,69.228455 
	C179.249146,74.712830 179.508408,80.225067 179.409561,85.723145 
	C179.285004,92.651871 178.268051,93.823151 173.203934,95.020119 
	C166.927170,90.289757 161.657028,86.212944 156.268097,82.299721 
	C153.445831,80.250305 150.459549,78.414215 147.469040,76.611694 
	C141.682831,73.124100 136.737015,75.749878 136.607849,82.578018 
	C136.402985,93.406998 136.362579,104.243813 136.568069,115.071320 
	C136.603500,116.938858 137.699478,119.521179 139.160278,120.507721 
	C148.772659,126.999390 158.619308,133.144226 168.989166,139.786224 
	C170.943375,132.343201 165.409515,121.467758 179.344894,119.950439 
	C179.344894,124.021141 179.351624,127.775848 179.343430,131.530518 
	C179.328857,138.196686 179.091614,144.871643 179.365875,151.525681 
	C179.529037,155.484192 178.202774,157.905441 174.813339,160.035461 
	C149.182404,176.142563 123.631050,192.377319 98.148445,208.718185 
	C94.616364,210.983154 91.846649,211.177353 88.198074,208.850464 
	C62.675770,192.573456 37.028214,176.492874 11.423761,160.344635 
	C10.440125,159.724274 9.401038,159.153061 8.535553,158.391098 
	C5.459332,155.682861 6.158898,152.235245 7.613207,149.273468 
	C7.896139,148.697266 11.801158,149.537430 13.827279,150.287003 
	C15.647608,150.960419 17.223076,152.350616 18.833923,153.524307 
	C22.575768,156.250702 25.537800,155.340103 28.039707,151.974075 
	C21.243259,146.949539 14.620410,142.053329 7.838430,136.801361 
M66.338249,175.141373 
	C62.682037,172.836197 59.026093,170.530594 55.369549,168.225952 
	C45.427013,161.959335 45.293900,161.623642 55.672142,155.469452 
	C67.236298,148.612030 79.047783,142.167099 90.850227,135.723206 
	C92.020889,135.084045 94.165199,135.175827 95.362679,135.831833 
	C99.236206,137.953827 101.842560,136.751892 104.183006,133.559937 
	C95.543251,125.363426 93.454094,125.188660 84.327164,131.356125 
	C80.058014,134.240967 75.709999,137.018356 71.289772,139.664062 
	C70.154564,140.343536 68.201797,140.993835 67.363876,140.471542 
	C66.456902,139.906189 66.057198,137.955734 66.049629,136.605957 
	C65.960907,120.780945 66.064880,104.954651 65.931602,89.130257 
	C65.896729,84.990112 67.545364,82.231178 70.976425,80.125710 
	C79.194366,75.082779 87.347794,69.934151 95.495781,64.778427 
	C96.648438,64.049065 97.625000,63.041416 98.763062,62.096130 
	C95.151703,57.552620 91.607330,58.228184 87.852936,60.654968 
	C80.033829,65.709106 72.291893,70.893326 64.323662,75.701622 
	C60.295399,78.132393 58.616482,81.187706 58.686588,85.884941 
	C58.930199,102.207085 58.737530,118.536247 59.034275,134.856857 
	C59.166634,142.136444 56.434723,147.181122 50.051109,150.736603 
	C44.216721,153.986191 38.711876,157.827423 32.583241,161.711197 
	C34.691978,163.125381 36.031734,164.067078 37.412872,164.943542 
	C53.978096,175.455673 70.629105,185.835938 87.064499,196.547104 
	C91.298050,199.306152 94.563751,199.341995 98.818550,196.588730 
	C120.733597,182.407639 142.821289,168.493408 164.842056,154.475571 
	C166.148315,153.644028 167.396469,152.721207 169.154053,151.507858 
	C156.277527,143.386658 144.084717,135.611633 131.793365,127.995628 
	C128.040573,125.670303 126.179253,122.681000 126.198387,118.196503 
	C126.245964,107.049736 125.967003,95.901398 126.034134,84.754990 
	C126.051872,81.810020 126.366180,78.691238 127.374954,75.958939 
	C131.269241,65.411049 142.990723,61.679321 152.116669,67.746284 
	C157.477859,71.310417 162.957123,74.696938 168.471954,78.219986 
	C170.562302,71.356750 169.271545,67.903961 163.636002,64.393265 
	C158.841415,61.406467 153.957733,58.543045 149.329514,55.315273 
	C145.794739,52.850075 142.800674,53.038300 139.325943,55.449505 
	C133.180511,59.713970 126.912552,63.824921 120.492935,67.660461 
	C117.713890,69.320869 114.430672,70.137421 110.672356,71.613892 
	C110.672356,87.615669 110.542206,104.600060 110.856041,121.576248 
	C110.890770,123.455032 113.083794,125.883041 114.916962,127.043869 
	C126.847450,134.598572 138.965042,141.857346 150.989517,149.264755 
	C152.181213,149.998871 153.158417,151.081146 154.402008,152.144470 
	C153.265488,153.202164 152.626740,154.001724 151.810974,154.525711 
	C133.624374,166.207397 115.413368,177.851105 97.220596,189.523224 
	C94.173317,191.478302 91.365120,191.126038 88.404655,189.202179 
	C81.294792,184.581833 74.093987,180.101440 66.338249,175.141373 
M35.800747,55.285404 
	C31.043287,58.339508 26.373661,61.543617 21.499144,64.397804 
	C17.929333,66.488037 16.532688,69.254692 16.590010,73.382744 
	C16.781969,87.207100 17.753866,101.137718 16.422304,114.832726 
	C15.129390,128.130219 19.242695,136.849701 31.523581,141.804123 
	C32.282597,142.110352 32.889908,142.854233 33.658127,143.064545 
	C35.999599,143.705627 38.961132,145.335938 40.638241,144.496719 
	C44.567520,142.530518 49.114292,140.743561 49.021000,134.614670 
	C48.785358,119.133972 49.035671,103.645927 49.086361,88.160812 
	C49.114090,79.689766 45.589333,73.509338 37.688259,69.904488 
	C36.033665,69.149590 34.800076,67.471939 33.372478,66.219505 
	C34.609165,64.958214 35.661098,63.408646 37.110718,62.479610 
	C54.189369,51.534233 71.369598,40.746902 88.413116,29.747574 
	C91.656761,27.654232 94.224869,27.504511 97.490730,29.692753 
	C106.328629,35.614445 115.432030,41.139282 124.286362,47.037346 
	C128.088165,49.569805 130.866745,49.197422 133.599121,45.067566 
	C121.552177,37.263577 109.625473,29.729189 97.932640,21.847830 
	C94.353455,19.435339 91.665169,19.395479 88.051788,21.759352 
	C70.936905,32.955894 53.657440,43.900856 35.800747,55.285404 
M98.988182,149.624664 
	C96.217529,150.323563 92.752594,152.407379 90.818405,151.437729 
	C86.579865,149.312881 84.933647,151.425430 82.695396,153.885162 
	C90.716606,161.649948 92.267372,161.803864 100.630600,156.247437 
	C104.369659,153.763245 108.200867,151.416428 112.014046,149.045517 
	C115.398361,146.941254 118.102867,148.121750 120.173950,151.065506 
	C122.577332,154.481567 119.610619,155.769638 117.431625,157.192688 
	C110.747536,161.557861 103.936974,165.734955 97.346642,170.235657 
	C94.267677,172.338364 91.758179,172.286560 88.743263,170.162079 
	C84.125595,166.908203 79.274406,163.985016 74.512772,160.936401 
	C71.073753,158.734573 68.402916,159.397873 66.251656,163.079193 
	C73.266678,167.743484 80.012566,172.271149 86.803452,176.730286 
	C91.973503,180.125122 94.826881,179.923401 99.968849,176.174118 
	C102.384056,174.413071 104.898209,172.782700 107.414047,171.165512 
	C117.029785,164.984604 126.664421,158.833069 137.124069,152.137985 
	C130.622742,148.056351 124.860680,144.164429 118.796837,140.819595 
	C117.227898,139.954147 114.356621,140.125626 112.700890,140.995636 
	C108.152481,143.385605 103.931831,146.399353 98.988182,149.624664 
M86.728119,118.158714 
	C91.054428,114.808548 95.527191,114.211739 99.955399,118.261459 
	C99.955399,103.066208 99.955399,88.694862 99.955399,73.416679 
	C93.627548,77.429825 88.000504,80.880516 82.497414,84.518715 
	C75.747749,88.981041 73.949448,95.707344 77.362740,103.837029 
	C79.947540,102.270859 82.386116,100.513008 85.062012,99.263283 
	C87.091599,98.315407 89.423485,98.014786 91.620850,97.426140 
	C91.777458,99.986961 92.264252,102.590057 91.944267,105.089867 
	C91.795662,106.250793 90.218300,107.413300 89.045395,108.222572 
	C86.038620,110.297173 82.872833,112.139488 79.812950,114.139427 
	C76.120056,116.553108 75.260376,119.798004 76.944954,124.403854 
	C80.300385,122.286324 83.220612,120.443436 86.728119,118.158714 
M56.283749,68.796974 
	C58.180008,67.792267 60.153564,66.909248 61.959435,65.762230 
	C70.783775,60.157307 79.616234,54.561737 88.331131,48.789715 
	C91.526993,46.673038 94.284897,46.570152 97.454590,48.797218 
	C101.795410,51.847130 106.340088,54.606998 110.799263,57.488300 
	C114.273605,59.733257 117.140411,59.429150 119.458145,55.516071 
	C111.407082,50.338211 103.666847,45.199959 95.719582,40.404831 
	C94.374001,39.592953 91.696388,39.540695 90.381073,40.350540 
	C77.110519,48.521317 63.995632,56.944939 50.039730,65.803612 
	C52.265774,67.035408 53.902103,67.940880 56.283749,68.796974 
z"/>
<path fill="#ff0000" opacity="0.000000" stroke="none" 
	d="
M66.634064,175.352966 
	C74.093987,180.101440 81.294792,184.581833 88.404655,189.202179 
	C91.365120,191.126038 94.173317,191.478302 97.220596,189.523224 
	C115.413368,177.851105 133.624374,166.207397 151.810974,154.525711 
	C152.626740,154.001724 153.265488,153.202164 154.402008,152.144470 
	C153.158417,151.081146 152.181213,149.998871 150.989517,149.264755 
	C138.965042,141.857346 126.847450,134.598572 114.916962,127.043869 
	C113.083794,125.883041 110.890770,123.455032 110.856041,121.576248 
	C110.542206,104.600060 110.672356,87.615669 110.672356,71.613892 
	C114.430672,70.137421 117.713890,69.320869 120.492935,67.660461 
	C126.912552,63.824921 133.180511,59.713970 139.325943,55.449505 
	C142.800674,53.038300 145.794739,52.850075 149.329514,55.315273 
	C153.957733,58.543045 158.841415,61.406467 163.636002,64.393265 
	C169.271545,67.903961 170.562302,71.356750 168.471954,78.219986 
	C162.957123,74.696938 157.477859,71.310417 152.116669,67.746284 
	C142.990723,61.679321 131.269241,65.411049 127.374954,75.958939 
	C126.366180,78.691238 126.051872,81.810020 126.034134,84.754990 
	C125.967003,95.901398 126.245964,107.049736 126.198387,118.196503 
	C126.179253,122.681000 128.040573,125.670303 131.793365,127.995628 
	C144.084717,135.611633 156.277527,143.386658 169.154053,151.507858 
	C167.396469,152.721207 166.148315,153.644028 164.842056,154.475571 
	C142.821289,168.493408 120.733597,182.407639 98.818550,196.588730 
	C94.563751,199.341995 91.298050,199.306152 87.064499,196.547104 
	C70.629105,185.835938 53.978096,175.455673 37.412872,164.943542 
	C36.031734,164.067078 34.691978,163.125381 32.583241,161.711197 
	C38.711876,157.827423 44.216721,153.986191 50.051109,150.736603 
	C56.434723,147.181122 59.166634,142.136444 59.034275,134.856857 
	C58.737530,118.536247 58.930199,102.207085 58.686588,85.884941 
	C58.616482,81.187706 60.295399,78.132393 64.323662,75.701622 
	C72.291893,70.893326 80.033829,65.709106 87.852936,60.654968 
	C91.607330,58.228184 95.151703,57.552620 98.763062,62.096130 
	C97.625000,63.041416 96.648438,64.049065 95.495781,64.778427 
	C87.347794,69.934151 79.194366,75.082779 70.976425,80.125710 
	C67.545364,82.231178 65.896729,84.990112 65.931602,89.130257 
	C66.064880,104.954651 65.960907,120.780945 66.049629,136.605957 
	C66.057198,137.955734 66.456902,139.906189 67.363876,140.471542 
	C68.201797,140.993835 70.154564,140.343536 71.289772,139.664062 
	C75.709999,137.018356 80.058014,134.240967 84.327164,131.356125 
	C93.454094,125.188660 95.543251,125.363426 104.183006,133.559937 
	C101.842560,136.751892 99.236206,137.953827 95.362679,135.831833 
	C94.165199,135.175827 92.020889,135.084045 90.850227,135.723206 
	C79.047783,142.167099 67.236298,148.612030 55.672142,155.469452 
	C45.293900,161.623642 45.427013,161.959335 55.369549,168.225952 
	C59.026093,170.530594 62.682037,172.836197 66.634064,175.352966 
z"/>
<path fill="#ff0000" opacity="0.000000" stroke="none" 
	d="
M36.118683,55.110428 
	C53.657440,43.900856 70.936905,32.955894 88.051788,21.759352 
	C91.665169,19.395479 94.353455,19.435339 97.932640,21.847830 
	C109.625473,29.729189 121.552177,37.263577 133.599121,45.067566 
	C130.866745,49.197422 128.088165,49.569805 124.286362,47.037346 
	C115.432030,41.139282 106.328629,35.614445 97.490730,29.692753 
	C94.224869,27.504511 91.656761,27.654232 88.413116,29.747574 
	C71.369598,40.746902 54.189369,51.534233 37.110718,62.479610 
	C35.661098,63.408646 34.609165,64.958214 33.372478,66.219505 
	C34.800076,67.471939 36.033665,69.149590 37.688259,69.904488 
	C45.589333,73.509338 49.114090,79.689766 49.086361,88.160812 
	C49.035671,103.645927 48.785358,119.133972 49.021000,134.614670 
	C49.114292,140.743561 44.567520,142.530518 40.638241,144.496719 
	C38.961132,145.335938 35.999599,143.705627 33.658127,143.064545 
	C32.889908,142.854233 32.282597,142.110352 31.523581,141.804123 
	C19.242695,136.849701 15.129390,128.130219 16.422304,114.832726 
	C17.753866,101.137718 16.781969,87.207100 16.590010,73.382744 
	C16.532688,69.254692 17.929333,66.488037 21.499144,64.397804 
	C26.373661,61.543617 31.043287,58.339508 36.118683,55.110428 
M24.136427,124.699898 
	C25.805676,131.955841 32.856312,133.234955 37.823704,136.776764 
	C38.235554,137.070419 40.689484,135.710083 40.970898,134.756927 
	C41.937695,131.482407 42.136093,127.896057 38.524609,126.013000 
	C34.622639,123.978477 33.928135,120.826546 33.965565,116.906113 
	C34.076687,105.267319 33.870007,93.624077 34.094975,81.988525 
	C34.177322,77.729500 32.236698,75.062622 28.943169,73.058167 
	C25.760216,71.121017 23.886135,72.185585 23.886610,75.963585 
	C23.888622,91.923592 23.970354,107.883598 24.136427,124.699898 
z"/>
<path fill="#ff0000" opacity="0.000000" stroke="none" 
	d="
M99.284836,149.395462 
	C103.931831,146.399353 108.152481,143.385605 112.700890,140.995636 
	C114.356621,140.125626 117.227898,139.954147 118.796837,140.819595 
	C124.860680,144.164429 130.622742,148.056351 137.124069,152.137985 
	C126.664421,158.833069 117.029785,164.984604 107.414047,171.165512 
	C104.898209,172.782700 102.384056,174.413071 99.968849,176.174118 
	C94.826881,179.923401 91.973503,180.125122 86.803452,176.730286 
	C80.012566,172.271149 73.266678,167.743484 66.251656,163.079193 
	C68.402916,159.397873 71.073753,158.734573 74.512772,160.936401 
	C79.274406,163.985016 84.125595,166.908203 88.743263,170.162079 
	C91.758179,172.286560 94.267677,172.338364 97.346642,170.235657 
	C103.936974,165.734955 110.747536,161.557861 117.431625,157.192688 
	C119.610619,155.769638 122.577332,154.481567 120.173950,151.065506 
	C118.102867,148.121750 115.398361,146.941254 112.014046,149.045517 
	C108.200867,151.416428 104.369659,153.763245 100.630600,156.247437 
	C92.267372,161.803864 90.716606,161.649948 82.695396,153.885162 
	C84.933647,151.425430 86.579865,149.312881 90.818405,151.437729 
	C92.752594,152.407379 96.217529,150.323563 99.284836,149.395462 
z"/>
<path fill="#ff0000" opacity="0.000000" stroke="none" 
	d="
M86.434479,118.379631 
	C83.220612,120.443436 80.300385,122.286324 76.944954,124.403854 
	C75.260376,119.798004 76.120056,116.553108 79.812950,114.139427 
	C82.872833,112.139488 86.038620,110.297173 89.045395,108.222572 
	C90.218300,107.413300 91.795662,106.250793 91.944267,105.089867 
	C92.264252,102.590057 91.777458,99.986961 91.620850,97.426140 
	C89.423485,98.014786 87.091599,98.315407 85.062012,99.263283 
	C82.386116,100.513008 79.947540,102.270859 77.362740,103.837029 
	C73.949448,95.707344 75.747749,88.981041 82.497414,84.518715 
	C88.000504,80.880516 93.627548,77.429825 99.955399,73.416679 
	C99.955399,88.694862 99.955399,103.066208 99.955399,118.261459 
	C95.527191,114.211739 91.054428,114.808548 86.434479,118.379631 
z"/>
<path fill="#ff0000" opacity="0.000000" stroke="none" 
	d="
M55.911091,68.821663 
	C53.902103,67.940880 52.265774,67.035408 50.039730,65.803612 
	C63.995632,56.944939 77.110519,48.521317 90.381073,40.350540 
	C91.696388,39.540695 94.374001,39.592953 95.719582,40.404831 
	C103.666847,45.199959 111.407082,50.338211 119.458145,55.516071 
	C117.140411,59.429150 114.273605,59.733257 110.799263,57.488300 
	C106.340088,54.606998 101.795410,51.847130 97.454590,48.797218 
	C94.284897,46.570152 91.526993,46.673038 88.331131,48.789715 
	C79.616234,54.561737 70.783775,60.157307 61.959435,65.762230 
	C60.153564,66.909248 58.180008,67.792267 55.911091,68.821663 
z"/>
<path fill="#000000" opacity="1.000000" stroke="none" 
	d="
M24.079681,124.271751 
	C23.970354,107.883598 23.888622,91.923592 23.886610,75.963585 
	C23.886135,72.185585 25.760216,71.121017 28.943169,73.058167 
	C32.236698,75.062622 34.177322,77.729500 34.094975,81.988525 
	C33.870007,93.624077 34.076687,105.267319 33.965565,116.906113 
	C33.928135,120.826546 34.622639,123.978477 38.524609,126.013000 
	C42.136093,127.896057 41.937695,131.482407 40.970898,134.756927 
	C40.689484,135.710083 38.235554,137.070419 37.823704,136.776764 
	C32.856312,133.234955 25.805676,131.955841 24.079681,124.271751 
z"/>
</svg>