<svg version="1.1" id="Layer_1" xmlns="http://www.w3.org/2000/svg" xmlns:xlink="http://www.w3.org/1999/xlink" x="0px" y="0px"
	 width="100%" viewBox="0 0 490 192" enable-background="new 0 0 490 192" xml:space="preserve">
<path fill="#ff0000" opacity="0.000000" stroke="none" 
	d="
M385.000000,193.000000 
	C256.666656,193.000000 128.833328,193.000000 1.000000,193.000000 
	C1.000000,129.000000 1.000000,65.000000 1.000000,1.000000 
	C164.333328,1.000000 327.666656,1.000000 491.000000,1.000000 
	C491.000000,65.000000 491.000000,129.000000 491.000000,193.000000 
	C455.833344,193.000000 420.666656,193.000000 385.000000,193.000000 
M135.673172,95.502205 
	C135.421112,85.347725 135.410492,75.179077 134.815536,65.044731 
	C134.516357,59.948593 133.868912,54.658371 132.156952,49.895123 
	C122.310684,22.499605 100.938370,5.066641 68.873665,5.045296 
	C48.890179,5.031993 28.906675,5.037812 8.923196,5.054273 
	C7.829844,5.055173 6.736638,5.233172 5.689926,5.324666 
	C5.689926,66.743668 5.689926,127.768768 5.689926,189.002625 
	C17.661318,189.002625 29.313215,189.128342 40.961227,188.969254 
	C54.099564,188.789810 67.326508,189.224121 80.351227,187.845306 
	C105.967369,185.133530 129.760330,162.665070 133.456818,137.345413 
	C135.418579,123.908119 135.011719,110.125008 135.673172,95.502205 
M357.964447,54.652473 
	C355.123535,81.256569 355.505798,107.903519 357.361755,134.526169 
	C358.358765,148.827454 364.279633,161.155441 374.653900,171.153091 
	C392.968079,188.802399 414.845062,193.858749 439.220337,188.417480 
	C461.938416,183.346130 480.588074,165.702179 485.916229,137.561676 
	C478.371185,137.561676 470.895294,137.891586 463.466309,137.443207 
	C458.684570,137.154633 456.222229,138.665604 453.856934,142.961884 
	C445.347900,158.417404 430.713776,165.302902 414.031738,161.837509 
	C401.745880,159.285339 387.465057,149.402695 385.634399,130.377625 
	C383.425690,107.424271 382.946564,84.436546 386.044769,61.561050 
	C388.079773,46.535866 397.296143,36.810738 411.778687,32.990372 
	C426.645477,29.068638 439.952454,32.379471 449.860199,44.860889 
	C452.912506,48.706131 454.967041,53.343369 457.577545,57.786663 
	C466.795715,57.786663 476.381470,57.786663 485.990265,57.786663 
	C482.944031,29.852795 457.042511,5.665327 428.577179,3.950044 
	C392.474487,1.774545 365.977386,20.501829 357.964447,54.652473 
M268.941803,88.500015 
	C268.941803,60.753582 268.941803,33.007145 268.941803,5.404351 
	C259.228516,5.404351 250.168228,5.404351 241.362427,5.404351 
	C241.362427,66.811592 241.362427,127.860451 241.362427,188.792938 
	C280.496277,188.792938 319.276031,188.792938 358.078125,188.792938 
	C358.078125,180.049072 358.078125,171.515350 358.078125,162.646042 
	C328.310791,162.646042 298.883270,162.646042 268.941803,162.646042 
	C268.941803,138.037537 268.941803,113.768776 268.941803,88.500015 
M216.498734,31.402334 
	C221.897385,31.402334 227.296051,31.402334 232.663040,31.402334 
	C232.663040,22.227360 232.663040,13.814178 232.663040,5.305931 
	C203.036255,5.305931 173.669662,5.305931 144.295380,5.305931 
	C144.295380,14.138036 144.295380,22.706409 144.295380,31.402355 
	C168.226379,31.402355 191.862625,31.402355 216.498734,31.402334 
M169.500137,162.716431 
	C161.091278,162.716431 152.682419,162.716431 144.355499,162.716431 
	C144.355499,171.838882 144.355499,180.380478 144.355499,188.631149 
	C174.073700,188.631149 203.437729,188.631149 232.637375,188.631149 
	C232.637375,179.836426 232.637375,171.410660 232.637375,162.716415 
	C211.736847,162.716415 191.118500,162.716415 169.500137,162.716431 
M144.051544,84.711609 
	C144.051544,92.629829 144.051544,100.548042 144.051544,108.472961 
	C169.551498,108.472961 194.452515,108.472961 219.488968,108.472961 
	C219.488968,100.176941 219.488968,92.148041 219.488968,84.015503 
	C194.333908,84.015503 169.529831,84.015503 144.051544,84.711609 
z"/>
<path fill="#000000" opacity="1.000000" stroke="none" 
	d="
M135.673630,96.000107 
	C135.011719,110.125008 135.418579,123.908119 133.456818,137.345413 
	C129.760330,162.665070 105.967369,185.133530 80.351227,187.845306 
	C67.326508,189.224121 54.099564,188.789810 40.961227,188.969254 
	C29.313215,189.128342 17.661318,189.002625 5.689926,189.002625 
	C5.689926,127.768768 5.689926,66.743668 5.689926,5.324666 
	C6.736638,5.233172 7.829844,5.055173 8.923196,5.054273 
	C28.906675,5.037812 48.890179,5.031993 68.873665,5.045296 
	C100.938370,5.066641 122.310684,22.499605 132.156952,49.895123 
	C133.868912,54.658371 134.516357,59.948593 134.815536,65.044731 
	C135.410492,75.179077 135.421112,85.347725 135.673630,96.000107 
M33.220501,148.486420 
	C33.220501,153.090607 33.220501,157.694809 33.220501,162.709991 
	C44.449493,162.709991 55.073193,162.783768 65.694870,162.669449 
	C69.348198,162.630127 73.041512,162.388367 76.639374,161.781464 
	C93.771988,158.891479 106.379723,145.448730 106.829773,128.309555 
	C107.366997,107.850510 107.397316,87.352821 106.797638,66.896774 
	C106.255630,48.407967 91.230591,33.073021 72.739250,31.915924 
	C59.970100,31.116892 47.118427,31.633493 34.303539,31.590622 
	C34.031219,31.589708 33.757744,31.934185 33.220501,32.295094 
	C33.220501,70.577286 33.220501,109.034340 33.220501,148.486420 
z"/>
<path fill="#000000" opacity="1.000000" stroke="none" 
	d="
M358.008698,54.223366 
	C365.977386,20.501829 392.474487,1.774545 428.577179,3.950044 
	C457.042511,5.665327 482.944031,29.852795 485.990265,57.786663 
	C476.381470,57.786663 466.795715,57.786663 457.577545,57.786663 
	C454.967041,53.343369 452.912506,48.706131 449.860199,44.860889 
	C439.952454,32.379471 426.645477,29.068638 411.778687,32.990372 
	C397.296143,36.810738 388.079773,46.535866 386.044769,61.561050 
	C382.946564,84.436546 383.425690,107.424271 385.634399,130.377625 
	C387.465057,149.402695 401.745880,159.285339 414.031738,161.837509 
	C430.713776,165.302902 445.347900,158.417404 453.856934,142.961884 
	C456.222229,138.665604 458.684570,137.154633 463.466309,137.443207 
	C470.895294,137.891586 478.371185,137.561676 485.916229,137.561676 
	C480.588074,165.702179 461.938416,183.346130 439.220337,188.417480 
	C414.845062,193.858749 392.968079,188.802399 374.653900,171.153091 
	C364.279633,161.155441 358.358765,148.827454 357.361755,134.526169 
	C355.505798,107.903519 355.123535,81.256569 358.008698,54.223366 
z"/>
<path fill="#000000" opacity="1.000000" stroke="none" 
	d="
M268.941803,89.000015 
	C268.941803,113.768776 268.941803,138.037537 268.941803,162.646042 
	C298.883270,162.646042 328.310791,162.646042 358.078125,162.646042 
	C358.078125,171.515350 358.078125,180.049072 358.078125,188.792938 
	C319.276031,188.792938 280.496277,188.792938 241.362427,188.792938 
	C241.362427,127.860451 241.362427,66.811592 241.362427,5.404351 
	C250.168228,5.404351 259.228516,5.404351 268.941803,5.404351 
	C268.941803,33.007145 268.941803,60.753582 268.941803,89.000015 
z"/>
<path fill="#000000" opacity="1.000000" stroke="none" 
	d="
M215.998810,31.402344 
	C191.862625,31.402355 168.226379,31.402355 144.295380,31.402355 
	C144.295380,22.706409 144.295380,14.138036 144.295380,5.305931 
	C173.669662,5.305931 203.036255,5.305931 232.663040,5.305931 
	C232.663040,13.814178 232.663040,22.227360 232.663040,31.402334 
	C227.296051,31.402334 221.897385,31.402334 215.998810,31.402344 
z"/>
<path fill="#000000" opacity="1.000000" stroke="none" 
	d="
M170.000153,162.716431 
	C191.118500,162.716415 211.736847,162.716415 232.637375,162.716415 
	C232.637375,171.410660 232.637375,179.836426 232.637375,188.631149 
	C203.437729,188.631149 174.073700,188.631149 144.355499,188.631149 
	C144.355499,180.380478 144.355499,171.838882 144.355499,162.716431 
	C152.682419,162.716431 161.091278,162.716431 170.000153,162.716431 
z"/>
<path fill="#000000" opacity="1.000000" stroke="none" 
	d="
M144.388657,84.363556 
	C169.529831,84.015503 194.333908,84.015503 219.488968,84.015503 
	C219.488968,92.148041 219.488968,100.176941 219.488968,108.472961 
	C194.452515,108.472961 169.551498,108.472961 144.051544,108.472961 
	C144.051544,100.548042 144.051544,92.629829 144.388657,84.363556 
z"/>
<path fill="#ff0000" opacity="0.000000" stroke="none" 
	d="
M33.220501,147.988907 
	C33.220501,109.034340 33.220501,70.577286 33.220501,32.295094 
	C33.757744,31.934185 34.031219,31.589708 34.303539,31.590622 
	C47.118427,31.633493 59.970100,31.116892 72.739250,31.915924 
	C91.230591,33.073021 106.255630,48.407967 106.797638,66.896774 
	C107.397316,87.352821 107.366997,107.850510 106.829773,128.309555 
	C106.379723,145.448730 93.771988,158.891479 76.639374,161.781464 
	C73.041512,162.388367 69.348198,162.630127 65.694870,162.669449 
	C55.073193,162.783768 44.449493,162.709991 33.220501,162.709991 
	C33.220501,157.694809 33.220501,153.090607 33.220501,147.988907 
z"/>
</svg>