<svg version="1.1" id="Layer_1" xmlns="http://www.w3.org/2000/svg" xmlns:xlink="http://www.w3.org/1999/xlink" x="0px" y="0px"
	 width="100%" viewBox="0 0 900 300" enable-background="new 0 0 900 300" xml:space="preserve">
<path fill="#FEFEFE" opacity="0.000000" stroke="none" 
	d="
M713.000000,301.000000 
	C475.333344,301.000000 238.166672,301.000000 1.000000,301.000000 
	C1.000000,201.000000 1.000000,101.000000 1.000000,1.000000 
	C301.000000,1.000000 601.000000,1.000000 901.000000,1.000000 
	C901.000000,101.000000 901.000000,201.000000 901.000000,301.000000 
	C838.500000,301.000000 776.000000,301.000000 713.000000,301.000000 
M20.578276,173.499878 
	C20.578276,213.559921 20.578276,253.619965 20.578276,293.999146 
	C22.288504,293.999146 23.270407,293.999268 24.252310,293.999084 
	C58.739559,293.992859 93.229126,294.206940 127.712616,293.843475 
	C137.810074,293.737061 148.066330,292.855133 157.948425,290.846161 
	C206.116257,281.053986 239.670547,253.653305 255.902206,206.740082 
	C264.829590,180.937820 265.601379,154.241760 262.087250,127.314957 
	C253.853546,64.224960 207.788391,18.605724 141.130478,14.451286 
	C101.955383,12.009708 62.531433,13.557855 23.219254,13.340714 
	C22.459085,13.336515 21.696920,13.693953 20.577923,13.971354 
	C20.577923,66.923630 20.577923,119.711746 20.578276,173.499878 
M859.486328,237.993011 
	C834.649841,248.151611 809.054321,252.661148 782.331543,247.939713 
	C754.419373,243.008148 734.437683,227.417740 723.801453,201.291870 
	C710.950012,169.724686 710.860657,137.522812 724.027405,106.006126 
	C734.561646,80.790680 753.848694,65.265724 780.867493,59.956699 
	C807.867432,54.651363 833.831177,58.772511 859.039856,69.086189 
	C862.662292,70.568283 866.283569,72.053238 870.328979,73.710396 
	C870.639771,71.649986 870.868042,70.383354 871.017639,69.107498 
	C872.567810,55.881851 873.950806,42.633766 875.740845,29.440844 
	C876.275146,25.502386 875.352722,23.578676 871.601868,21.908487 
	C838.523865,7.179261 804.073059,4.096887 768.982544,11.255263 
	C722.056213,20.828121 688.067932,47.569893 669.327454,91.991547 
	C656.192261,123.126656 654.755371,155.871140 661.241394,188.644714 
	C671.283508,239.386459 700.442871,274.930389 749.852722,291.481842 
	C791.668457,305.489349 833.222717,301.674469 873.512390,284.072266 
	C874.722107,283.543732 875.815247,281.053864 875.727112,279.550873 
	C875.396545,273.910339 874.564087,268.298553 873.898743,262.678467 
	C872.773682,253.174454 871.632812,243.672333 870.430054,233.595215 
	C866.615784,235.147064 863.419067,236.447662 859.486328,237.993011 
M496.883667,133.500000 
	C496.883667,186.909317 496.883667,240.318619 496.883667,293.593933 
	C552.956482,293.593933 608.331360,293.593933 663.633301,293.593933 
	C663.633301,278.246948 663.633301,263.308319 663.633301,247.831512 
	C625.311829,247.831512 587.247498,247.831512 548.713867,247.831512 
	C548.713867,234.666229 548.713867,222.037125 548.713867,209.408020 
	C548.713867,145.918655 548.659729,82.429138 548.823853,18.940193 
	C548.836060,14.224464 547.448059,13.102861 542.946777,13.197761 
	C529.455017,13.482203 515.953430,13.300163 502.455658,13.300191 
	C500.700531,13.300195 498.945404,13.300192 496.883606,13.300192 
	C496.883606,53.541317 496.883606,93.020660 496.883667,133.500000 
M287.083374,15.896406 
	C287.083374,31.668798 287.083374,47.441189 287.083374,63.413124 
	C347.284607,63.413124 406.955048,63.413124 466.730713,63.413124 
	C466.730713,46.664783 466.730713,30.251810 466.730713,13.589128 
	C465.536438,13.476489 464.573608,13.306418 463.610748,13.306196 
	C406.148834,13.292979 348.686890,13.282058 291.225098,13.363824 
	C289.855286,13.365774 288.487000,14.419435 287.083374,15.896406 
M287.086609,253.543930 
	C287.086609,266.955261 287.086609,280.366608 287.086609,293.591858 
	C348.819153,293.591858 409.824738,293.591858 470.748230,293.591858 
	C470.748230,276.913940 470.748230,260.643829 470.748230,244.533875 
	C409.535278,244.533875 348.557556,244.533875 287.086639,244.533875 
	C287.086639,247.632263 287.086639,250.096298 287.086609,253.543930 
M422.494843,172.884613 
	C427.738068,172.884613 432.981323,172.884613 438.244385,172.884613 
	C438.244385,155.766159 438.244385,139.405930 438.244385,123.340332 
	C387.673798,123.340332 337.512695,123.340332 287.406006,123.340332 
	C287.406006,140.228409 287.406006,156.460281 287.406006,172.884552 
	C332.319244,172.884552 376.908112,172.884552 422.494843,172.884613 
z"/>
<path fill="#5F5F5F" opacity="1.000000" stroke="none" 
	d="
M20.578098,172.999878 
	C20.577923,119.711746 20.577923,66.923630 20.577923,13.971354 
	C21.696920,13.693953 22.459085,13.336515 23.219254,13.340714 
	C62.531433,13.557855 101.955383,12.009708 141.130478,14.451286 
	C207.788391,18.605724 253.853546,64.224960 262.087250,127.314957 
	C265.601379,154.241760 264.829590,180.937820 255.902206,206.740082 
	C239.670547,253.653305 206.116257,281.053986 157.948425,290.846161 
	C148.066330,292.855133 137.810074,293.737061 127.712616,293.843475 
	C93.229126,294.206940 58.739559,293.992859 24.252310,293.999084 
	C23.270407,293.999268 22.288504,293.999146 20.578276,293.999146 
	C20.578276,253.619965 20.578276,213.559921 20.578098,172.999878 
M153.373489,243.949417 
	C176.972076,236.724243 192.260361,220.935181 200.169632,197.889450 
	C209.650116,170.265549 209.897766,142.139694 201.810928,114.344452 
	C191.672852,79.498924 167.315903,62.364872 135.363358,60.306290 
	C115.275986,59.012135 95.052307,59.829308 74.889641,59.725876 
	C74.118744,59.721920 73.346413,59.995876 72.609100,60.133904 
	C72.609100,122.833199 72.609100,185.216202 72.609100,247.488235 
	C92.314545,247.488235 111.634743,247.785553 130.937469,247.334946 
	C138.173126,247.166031 145.368179,245.257584 153.373489,243.949417 
z"/>
<path fill="#5F5F5F" opacity="1.000000" stroke="none" 
	d="
M859.854309,237.870636 
	C863.419067,236.447662 866.615784,235.147064 870.430054,233.595215 
	C871.632812,243.672333 872.773682,253.174454 873.898743,262.678467 
	C874.564087,268.298553 875.396545,273.910339 875.727112,279.550873 
	C875.815247,281.053864 874.722107,283.543732 873.512390,284.072266 
	C833.222717,301.674469 791.668457,305.489349 749.852722,291.481842 
	C700.442871,274.930389 671.283508,239.386459 661.241394,188.644714 
	C654.755371,155.871140 656.192261,123.126656 669.327454,91.991547 
	C688.067932,47.569893 722.056213,20.828121 768.982544,11.255263 
	C804.073059,4.096887 838.523865,7.179261 871.601868,21.908487 
	C875.352722,23.578676 876.275146,25.502386 875.740845,29.440844 
	C873.950806,42.633766 872.567810,55.881851 871.017639,69.107498 
	C870.868042,70.383354 870.639771,71.649986 870.328979,73.710396 
	C866.283569,72.053238 862.662292,70.568283 859.039856,69.086189 
	C833.831177,58.772511 807.867432,54.651363 780.867493,59.956699 
	C753.848694,65.265724 734.561646,80.790680 724.027405,106.006126 
	C710.860657,137.522812 710.950012,169.724686 723.801453,201.291870 
	C734.437683,227.417740 754.419373,243.008148 782.331543,247.939713 
	C809.054321,252.661148 834.649841,248.151611 859.854309,237.870636 
z"/>
<path fill="#5F5F5F" opacity="1.000000" stroke="none" 
	d="
M496.883636,133.000000 
	C496.883606,93.020660 496.883606,53.541317 496.883606,13.300192 
	C498.945404,13.300192 500.700531,13.300195 502.455658,13.300191 
	C515.953430,13.300163 529.455017,13.482203 542.946777,13.197761 
	C547.448059,13.102861 548.836060,14.224464 548.823853,18.940193 
	C548.659729,82.429138 548.713867,145.918655 548.713867,209.408020 
	C548.713867,222.037125 548.713867,234.666229 548.713867,247.831512 
	C587.247498,247.831512 625.311829,247.831512 663.633301,247.831512 
	C663.633301,263.308319 663.633301,278.246948 663.633301,293.593933 
	C608.331360,293.593933 552.956482,293.593933 496.883667,293.593933 
	C496.883667,240.318619 496.883667,186.909317 496.883636,133.000000 
z"/>
<path fill="#606060" opacity="1.000000" stroke="none" 
	d="
M287.100677,15.439480 
	C288.487000,14.419435 289.855286,13.365774 291.225098,13.363824 
	C348.686890,13.282058 406.148834,13.292979 463.610748,13.306196 
	C464.573608,13.306418 465.536438,13.476489 466.730713,13.589128 
	C466.730713,30.251810 466.730713,46.664783 466.730713,63.413124 
	C406.955048,63.413124 347.284607,63.413124 287.083374,63.413124 
	C287.083374,47.441189 287.083374,31.668798 287.100677,15.439480 
z"/>
<path fill="#5E5E5E" opacity="1.000000" stroke="none" 
	d="
M287.086609,253.052139 
	C287.086639,250.096298 287.086639,247.632263 287.086639,244.533875 
	C348.557556,244.533875 409.535278,244.533875 470.748230,244.533875 
	C470.748230,260.643829 470.748230,276.913940 470.748230,293.591858 
	C409.824738,293.591858 348.819153,293.591858 287.086609,293.591858 
	C287.086609,280.366608 287.086609,266.955261 287.086609,253.052139 
z"/>
<path fill="#606060" opacity="1.000000" stroke="none" 
	d="
M421.995911,172.884583 
	C376.908112,172.884552 332.319244,172.884552 287.406006,172.884552 
	C287.406006,156.460281 287.406006,140.228409 287.406006,123.340332 
	C337.512695,123.340332 387.673798,123.340332 438.244385,123.340332 
	C438.244385,139.405930 438.244385,155.766159 438.244385,172.884613 
	C432.981323,172.884613 427.738068,172.884613 421.995911,172.884583 
z"/>
<path fill="#FEFEFE" opacity="0.000000" stroke="none" 
	d="
M152.977600,244.045837 
	C145.368179,245.257584 138.173126,247.166031 130.937469,247.334946 
	C111.634743,247.785553 92.314545,247.488235 72.609100,247.488235 
	C72.609100,185.216202 72.609100,122.833199 72.609100,60.133904 
	C73.346413,59.995876 74.118744,59.721920 74.889641,59.725876 
	C95.052307,59.829308 115.275986,59.012135 135.363358,60.306290 
	C167.315903,62.364872 191.672852,79.498924 201.810928,114.344452 
	C209.897766,142.139694 209.650116,170.265549 200.169632,197.889450 
	C192.260361,220.935181 176.972076,236.724243 152.977600,244.045837 
z"/>
</svg>